<?xml version="1.0" encoding="UTF-8"?>
<!DOCTYPE svg PUBLIC "-//W3C//DTD SVG 1.1//EN" "http://www.w3.org/Graphics/SVG/1.1/DTD/svg11.dtd">
<!-- Creator: CorelDRAW 2019 (64-Bit Evaluation Version) -->
<svg xmlns="http://www.w3.org/2000/svg" xml:space="preserve" width="21.59mm" height="21.59mm" version="1.1" style="shape-rendering:geometricPrecision; text-rendering:geometricPrecision; image-rendering:optimizeQuality; fill-rule:evenodd; clip-rule:evenodd"
viewBox="0 0 98.82 98.82"
 xmlns:xlink="http://www.w3.org/1999/xlink"
 xmlns:xodm="http://www.corel.com/coreldraw/odm/2003">
 <defs>
  <style type="text/css">
   <![CDATA[
    .fil0 {fill:none}
    .fil1 {fill:#FEFEFE}
   ]]>
  </style>
 </defs>
 <g id="Layer_x0020_1">
  <metadata id="CorelCorpID_0Corel-Layer"/>
  <rect class="fil0" width="98.82" height="98.82"/>
  <g id="_1651063645216">
   <path class="fil1" d="M76.72 10.34c0.24,0.18 0.87,0.77 1.17,1.07l1.11 1.29c9.43,11.48 11.72,26.74 5.61,40.57 -0.97,2.19 -2.25,4.47 -3.47,6.16 -0.97,1.34 -3.03,4.1 -4.42,5.18 0.31,0.54 1.7,1.89 2.24,2.35l1.97 2c0.33,0.29 0.01,0.08 0.34,0.25 0.89,-0.78 1.8,-1.88 2.67,-2.88 2.49,-2.84 4.85,-6.77 6.51,-10.34 5.28,-11.36 5.28,-25.69 0,-37.06 -1.92,-4.14 -5.73,-10.23 -9.18,-13.22l-1.76 1.67c-0.21,0.24 -0.29,0.36 -0.55,0.58 -0.37,0.32 -2.02,1.87 -2.24,2.35l0.01 0.01z"/>
   <path class="fil1" d="M4.41 37.49c0.04,9.35 2.91,18.48 8.03,25.65 1.27,1.77 3.45,4.58 5.12,6.1 0.51,-0.35 4.3,-4.15 4.55,-4.6 -0.97,-0.77 -1.01,-0.91 -1.67,-1.71 -2.85,-3.51 -4.04,-4.9 -6.18,-9.54 -4.55,-9.84 -4.56,-21.93 0,-31.78 1.04,-2.26 2.19,-4.34 3.49,-6.14l2.62 -3.32c0.62,-0.72 1.59,-1.66 1.69,-1.98l-4.49 -4.44c-3.61,3.34 -7.2,8.91 -9.2,13.25 -2.44,5.28 -4,11.92 -3.97,18.52l0.01 0z"/>
   <path class="fil1" d="M50.15 43.89c8.47,-1.47 6.83,-12.83 -0.74,-12.83 -7.59,0 -9.17,11.43 -0.71,12.83l-2.95 49.21 7.31 0c0.08,-2.02 -0.19,-4.39 -0.34,-6.21 -0.75,-9.79 -1.27,-20.79 -1.87,-30.71 -0.23,-3.89 -0.75,-8.49 -0.72,-12.29l0 -0.01z"/>
   <path class="fil1" d="M67.68 19.36l1.48 1.63c0.46,0.56 0.94,1.21 1.39,1.87 0.82,1.19 1.61,2.5 2.3,4.07 3.72,8.3 2.82,17.82 -2.3,25.19 -0.45,0.64 -0.87,1.22 -1.34,1.77 -0.57,0.67 -0.98,1.21 -1.54,1.72l3.27 3.38c0.39,0.33 0.81,0.66 1.05,1.19 2.12,-1.17 5.53,-6.94 6.7,-9.41 4.84,-10.28 3.45,-22.32 -2.88,-31.61 -0.77,-1.12 -2.76,-3.77 -3.82,-4.36 -0.35,0.76 -3.76,3.62 -4.32,4.57l0.01 -0z"/>
   <path class="fil1" d="M26.76 60.13l4.44 -4.48c-4.62,-4.39 -7.49,-11.55 -7.49,-18.17 0,-3.92 0.85,-7.38 2.27,-10.56 1.17,-2.62 3.23,-5.68 5.18,-7.57l-4.49 -4.57c-0.81,0.68 -1.32,1.34 -1.95,2.09 -0.55,0.66 -1.17,1.46 -1.72,2.25 -7.66,11.22 -7.66,25.47 0,36.69 0.54,0.79 1.17,1.59 1.72,2.25 0.35,0.42 0.59,0.66 0.92,1.06 0.32,0.4 0.59,0.71 1.12,0.99l0 0.01z"/>
   <path class="fil1" d="M58.57 28.42c0.3,0.44 0.36,0.42 0.75,0.85 0.21,0.24 0.47,0.61 0.67,0.91 3.22,4.57 2.99,11.14 -0.61,15.44 -0.35,0.41 -0.51,0.48 -0.81,0.93l4.44 4.5c0.47,-0.2 0.74,-0.69 1.14,-1.11 0.37,-0.39 0.7,-0.86 1.06,-1.36 4.89,-6.77 4.64,-17.1 -0.92,-23.43l-1.1 -1.29c-0.48,0.27 -4.09,3.86 -4.6,4.54l-0.01 0.01z"/>
   <path class="fil1" d="M35.66 51.09c0.44,-0.22 4.16,-3.95 4.6,-4.54l-1.42 -1.74c-2.55,-3.54 -2.93,-8.56 -1.17,-12.54 0.31,-0.69 0.73,-1.47 1.11,-2.01 0.19,-0.28 0.48,-0.66 0.67,-0.89 0.35,-0.42 0.51,-0.46 0.81,-0.93l-4.55 -4.59c-1.32,1.92 -1.99,1.71 -3.87,5.7 -2.26,4.8 -2.26,10.98 -0.04,15.8 1.83,3.97 2.72,4.03 3.87,5.75l0 -0.01z"/>
  </g>
 </g>
</svg>
